<svg xmlns="http://www.w3.org/2000/svg" width="169.292" height="37.966" viewBox="0 0 169.292 37.966">
  <g id="Groupe_56" data-name="Groupe 56" transform="translate(-875.354 -22)">
    <text id="ecommaroc" transform="translate(924.646 48)" fill="#404b5c" font-size="23" font-family="Tajawal-Bold, Tajawal" font-weight="700"><tspan x="0" y="0">ecommaroc</tspan></text>
    <g id="Groupe_28" data-name="Groupe 28" transform="translate(875.354 22)">
      <g id="Groupe_25" data-name="Groupe 25" transform="translate(10.354 29.337)">
        <circle id="Ellipse_6" data-name="Ellipse 6" cx="4.314" cy="4.314" r="4.314" transform="translate(17.257)" fill="#f72d5f"/>
        <circle id="Ellipse_7" data-name="Ellipse 7" cx="4.314" cy="4.314" r="4.314" fill="#f72d5f"/>
      </g>
      <path id="Tracé_3" data-name="Tracé 3" d="M798.835,154.66a.861.861,0,0,0-.648-.292H767.125a.864.864,0,0,0-.865.861.934.934,0,0,0,.018.173l3.451,17.256a.864.864,0,0,0,.846.692.616.616,0,0,0,.115,0l25.886-3.45a.868.868,0,0,0,.742-.749l1.725-13.806A.862.862,0,0,0,798.835,154.66ZM774.17,169.884a.63.63,0,0,1-.144.014.862.862,0,0,1-.85-.72l-1.725-10.355a.864.864,0,0,1,1.7-.285l1.725,10.355A.863.863,0,0,1,774.17,169.884Zm4.25-.857-.079.007a.859.859,0,0,1-.861-.785l-.864-9.491a.864.864,0,0,1,.778-.94h.007a.861.861,0,0,1,.936.782l.864,9.491A.861.861,0,0,1,778.421,169.027Zm5.1-1.718a.863.863,0,1,1-1.725,0v-8.63a.863.863,0,0,1,1.725,0Zm5.172-8.54-.865,7.765a.863.863,0,0,1-.857.774h-.1a.864.864,0,0,1-.767-.947v-.011l.864-7.765a.866.866,0,0,1,1.722.184Zm5.165.083c0,.011-.007.025-.011.036l-1.725,6.9a.863.863,0,0,1-1.7-.209,1,1,0,0,1,.025-.209l1.725-6.9a.864.864,0,1,1,1.686.382Z" transform="translate(-759.359 -149.189)" fill="#00d2d2"/>
      <path id="Tracé_4" data-name="Tracé 4" d="M782.476,167.6H762.56a6.057,6.057,0,0,1-5.922-4.854l-4.206-21.031h-4.469a.863.863,0,0,1,0-1.726h5.177a.863.863,0,0,1,.846.69l4.345,21.727a4.326,4.326,0,0,0,4.23,3.469h19.916a.863.863,0,0,1,0,1.726Z" transform="translate(-747.099 -139.99)" fill="#f72d5f"/>
    </g>
  </g>
</svg>
